<?xml version="1.0" encoding="UTF-8"?><svg id="Layer_1" xmlns="http://www.w3.org/2000/svg" viewBox="0 0 1000 121.89"><g><path d="M35.13,25.97c25.43,0,40.2,12.92,40.2,34.56,0,13.13-4.62,22.66-13.02,28.51-7.9,5.74-17.84,6.87-31.48,6.87H8.16L18.21,25.97h16.92Zm-10.46,58.87h9.64c17.02,0,25.84-9.74,25.84-24.2,0-13.33-8.1-23.59-25.74-23.59h-2.87l-6.87,47.79Z"/><path d="M135.94,25.97l-1.44,10.97h-28.1l-2.46,17.64h24.51l-1.54,10.97h-24.61l-2.77,19.38h35.07l-1.54,10.97h-50.15l10.15-69.94h42.87Z"/><path d="M203.43,26.79l-2.56,13.43c-4.72-1.44-9.13-2.05-12.92-2.05-18.87,0-29.74,12.2-29.74,26.66,0,10.05,5.64,18.97,17.43,18.97,8.2,0,16.61-3.69,24-9.13l-2.46,16.31c-8.92,4.1-15.59,5.85-22.36,5.85-21.13,0-32.2-13.33-32.2-30.97,0-20.41,14.66-40.82,45.43-40.82,4.51,0,10.56,.62,15.38,1.74Z"/><path d="M260.55,25.97l-1.44,10.97h-28.1l-2.46,17.64h24.51l-1.54,10.97h-24.61l-2.77,19.38h35.07l-1.54,10.97h-50.15l10.15-69.94h42.87Z"/><path d="M276.25,25.97h12.41l30.05,45.43,6.67-45.43h14.66l-10.25,69.94h-12.51l-29.84-45.23-6.67,45.23h-14.66l10.15-69.94Z"/><path d="M407.93,25.97l-1.85,12.31h-21.43l-8.51,57.63h-14.87l8.41-57.63h-21.43l1.85-12.31h57.84Z"/><path d="M460.44,25.97l-1.44,10.97h-28.1l-2.46,17.64h24.51l-1.54,10.97h-24.61l-2.77,19.38h35.07l-1.54,10.97h-50.15l10.15-69.94h42.87Z"/><path d="M491.01,25.97l-8.41,57.84h30.66l-1.74,12.1h-45.53l10.15-69.94h14.87Z"/><path d="M576.54,97.52h-27.9l10.62-73.15h20.36c16.11,0,24.98,6.51,24.98,18.32,0,6.47-2.69,11.6-7.99,15.27,7.3,3.7,11.27,9.55,11.27,16.72,0,8.53-4.07,22.83-31.34,22.83Zm-24.2-3.2h24.2c18.41,0,28.14-6.79,28.14-19.63,0-8.52-6.58-12.87-12.11-15.02l-3.28-1.28,3.12-1.63c6.05-3.17,8.99-7.77,8.99-14.07,0-12.49-11.84-15.11-21.78-15.11h-17.59l-9.69,66.74Zm22.25-6.23h-9.86l3.97-26.28h7.02c10.6,0,16.68,4.84,16.68,13.29s-5.82,12.99-17.8,12.99Zm-6.14-3.2h6.14c12.94,0,14.6-5.23,14.6-9.78,0-6.51-4.78-10.09-13.47-10.09h-4.26l-3,19.87Zm6.65-28.9h-5.54l3.23-22.48h4.87c10.05,0,12.17,5.78,12.17,10.63,0,11.86-11.09,11.86-14.73,11.86Zm-1.84-3.2h1.84c8.19,0,11.53-2.51,11.53-8.65,0-3.46-1.02-7.42-8.96-7.42h-2.1l-2.31,16.08Z"/><path d="M665.32,97.52h-53.39l10.62-73.15h46.08l-1.86,14.18h-28.11l-2.01,14.44h24.51l-1.99,14.18h-24.62l-2.31,16.18h35.07l-1.99,14.18Zm-49.69-3.2h46.9l1.09-7.77h-35.08l3.23-22.59h24.61l1.09-7.77h-24.51l2.91-20.84h28.09l1.02-7.77h-39.66l-9.69,66.74Z"/><path d="M704.69,97.52h-18.11l8.41-57.63h-21.44l2.33-15.51h61.08l-2.33,15.51h-21.43l-8.51,57.63Zm-14.4-3.2h11.64l8.51-57.63h21.44l1.37-9.1h-54.6l-1.37,9.1h21.43l-8.41,57.63Z"/><path d="M785.34,97.52h-18.59l-2.67-17.74h-18.71l-8,17.74h-18.87l35.39-73.25h17.72l13.73,73.25Zm-15.83-3.2h11.97l-12.53-66.84h-13.05l-32.29,66.84h11.69l8-17.74h23.54l2.67,17.74Zm-3.53-23.56h-20.1l15.14-34.33,4.96,34.33Zm-15.19-3.2h11.49l-2.83-19.62-8.65,19.62Z"/><path d="M817.15,97.52h-27.9l10.62-73.15h20.36c16.11,0,24.98,6.51,24.98,18.32,0,6.47-2.69,11.6-7.99,15.27,7.3,3.7,11.27,9.55,11.27,16.72,0,8.53-4.07,22.83-31.34,22.83Zm-24.2-3.2h24.2c18.41,0,28.14-6.79,28.14-19.63,0-8.52-6.58-12.87-12.11-15.02l-3.28-1.28,3.12-1.63c6.05-3.17,8.99-7.77,8.99-14.07,0-12.49-11.84-15.11-21.78-15.11h-17.59l-9.69,66.74Zm22.25-6.23h-9.86l3.97-26.28h7.02c10.6,0,16.68,4.84,16.68,13.29s-5.82,12.99-17.8,12.99Zm-6.14-3.2h6.14c12.94,0,14.6-5.23,14.6-9.78,0-6.51-4.78-10.09-13.47-10.09h-4.26l-3,19.87Zm6.65-28.9h-5.54l3.23-22.48h4.87c10.05,0,12.17,5.78,12.17,10.63,0,11.86-11.09,11.86-14.73,11.86Zm-1.84-3.2h1.84c8.19,0,11.53-2.51,11.53-8.65,0-3.46-1.02-7.42-8.96-7.42h-2.1l-2.31,16.08Z"/><path d="M887.4,98.44c-15.26,0-33.09-8.56-33.09-32.68s17.27-42.32,40.16-42.32c19.48,0,32.57,13.01,32.57,32.37,0,21.18-13.62,42.62-39.65,42.62Zm7.08-71.79c-21.07,0-36.96,16.81-36.96,39.11s15.44,29.47,29.88,29.47c23.93,0,36.45-19.83,36.45-39.42,0-17.44-11.8-29.16-29.37-29.16Zm-6.77,58.76c-10.82,0-17.81-7.67-17.81-19.55s7.65-29.39,24.06-29.39c10.57,0,17.4,7.83,17.4,19.96,0,14.25-8.85,28.98-23.65,28.98Zm6.26-45.74c-14.23,0-20.86,15.63-20.86,26.19s5.46,16.34,14.6,16.34c14.1,0,20.45-15.07,20.45-25.78,0-8.1-3.73-16.76-14.19-16.76Z"/><path d="M958.73,97.52h-18.11l4.72-31.46-16.83-41.69h18.47l8.82,24.66,15.84-24.66h20.19l-28.55,42.4-4.56,30.75Zm-14.39-3.2h11.63l4.26-28.73,25.6-38.01h-12.42l-18.41,28.67-10.25-28.67h-11.47l15.38,38.1-4.3,28.64Z"/></g><g><path d="M520.31,38.09v-.04c0-3.65,2.81-6.51,6.6-6.51,2.56,0,4.21,1.07,5.31,2.61l-2.61,2.02c-.72-.89-1.54-1.47-2.74-1.47-1.75,0-2.99,1.49-2.99,3.31v.04c0,1.88,1.23,3.35,2.99,3.35,1.31,0,2.08-.61,2.83-1.52l2.61,1.86c-1.18,1.63-2.77,2.83-5.55,2.83-3.58,0-6.46-2.74-6.46-6.48Z"/><path d="M526.32,50.14c-6.66,0-12.08-5.42-12.08-12.08s5.42-12.08,12.08-12.08,12.08,5.42,12.08,12.08-5.42,12.08-12.08,12.08Zm0-22.39c-5.68,0-10.31,4.63-10.31,10.31s4.63,10.31,10.31,10.31,10.31-4.62,10.31-10.31-4.63-10.31-10.31-10.31Z"/></g></svg>